<svg width="20" height="20" fill="none" xmlns="http://www.w3.org/2000/svg"><mask id="mask0_11452_3714" style="mask-type:alpha" maskUnits="userSpaceOnUse" x="0" y="0" width="20" height="20"><circle cx="10" cy="10" r="10" fill="#D9D9D9"/></mask><g mask="url(#mask0_11452_3714)"><path d="M25 0H-5v20h30V0z" fill="#F0F0F0"/><path d="M11.875 0h-3.75v8.125H-5v3.75H8.125V20h3.75v-8.125h13.124v-3.75H11.875V0z" fill="#D80027"/><path d="M18.073 13.478l6.926 3.848v-3.848h-6.926zm-4.813 0L25 20v-1.845l-8.42-4.677h-3.32zM21.872 20l-8.612-4.785V20h8.612z" fill="#0052B4"/><path d="M13.26 13.478L25 20v-1.845l-8.42-4.677h-3.32z" fill="#F0F0F0"/><path d="M13.26 13.478L25 20v-1.845l-8.42-4.677h-3.32z" fill="#D80027"/><path d="M.293 13.478L-5 16.418v-2.94H.293zm6.446.83V20H-3.506l10.245-5.692z" fill="#0052B4"/><path d="M3.42 13.478L-5 18.156V20l11.739-6.522h-3.32z" fill="#D80027"/><path d="M1.927 6.521L-5 2.673v3.848h6.927zm4.812.001L-5 0v1.844l8.42 4.678h3.319zM-1.873 0l8.612 4.785V0h-8.612z" fill="#0052B4"/><path d="M6.739 6.522L-5 0v1.844l8.42 4.678h3.319z" fill="#F0F0F0"/><path d="M6.739 6.522L-5 0v1.844l8.42 4.678h3.319z" fill="#D80027"/><path d="M19.706 6.522l5.293-2.941v2.94h-5.293zm-6.446-.83V0h10.246L13.26 5.692z" fill="#0052B4"/><path d="M16.58 6.522L25 1.844V0L13.26 6.522h3.32z" fill="#D80027"/></g></svg>