<svg width="22" height="22" fill="none" xmlns="http://www.w3.org/2000/svg"><path d="M10.563 0a10.563 10.563 0 1010.562 10.563A10.574 10.574 0 0010.562 0zM3.888 16.5l.256-.167a1.625 1.625 0 00.73-1.35l.021-3.68 2.13-3.178a.37.37 0 00.032.022l1.997 1.307a1.62 1.62 0 001.153.282l3.198-.434a1.625 1.625 0 001.016-.55l2.252-2.616c.251-.295.39-.67.389-1.058v-.643a8.924 8.924 0 012.007 8.87l-1.639-1.5a1.625 1.625 0 00-1.72-.304l-3.093 1.285a1.634 1.634 0 00-.983 1.264l-.243 1.644a1.625 1.625 0 001.196 1.81l2.18.574.239.24a8.925 8.925 0 01-11.118-1.817z" fill="#404040"/></svg>