<svg width="20" height="20" fill="none" xmlns="http://www.w3.org/2000/svg"><path d="M9.75 0a9.75 9.75 0 109.75 9.75A9.76 9.76 0 009.75 0zM3.59 15.232l.236-.155A1.5 1.5 0 004.5 13.83l.02-3.397L6.485 7.5l.03.02 1.844 1.207c.309.218.689.311 1.064.26l2.952-.4a1.5 1.5 0 00.938-.508l2.078-2.415a1.5 1.5 0 00.359-.976v-.594a8.238 8.238 0 011.853 8.187l-1.513-1.383a1.5 1.5 0 00-1.587-.282l-2.855 1.186a1.508 1.508 0 00-.908 1.167l-.224 1.518a1.5 1.5 0 001.103 1.67l2.012.53.221.223A8.239 8.239 0 013.59 15.232z" fill="#EB2B30"/></svg>