<svg width="26" height="18" fill="none" xmlns="http://www.w3.org/2000/svg"><path d="M25.826 6.084L23.235.898a1.625 1.625 0 00-2.18-.726l-2.527 1.262-5.32-1.407a.827.827 0 00-.417 0l-5.32 1.407L4.943.172a1.625 1.625 0 00-2.18.726L.172 6.083a1.625 1.625 0 00.726 2.18L3.64 9.635l5.636 4.025c.083.06.176.102.275.127l6.5 1.625a.812.812 0 00.772-.213l4.063-4.062 1.531-1.532L25.1 8.263a1.625 1.625 0 00.726-2.18zm-5.574 3.389l-3.495-2.8a.813.813 0 00-1.085.063c-1.809 1.822-3.825 1.591-5.11.779l4.391-4.266h3.23l2.764 5.526-.695.698zm-4.253 4.251l-5.902-1.475L5.1 8.679l2.843-5.687L13 1.652l.995.264-4.57 4.436-.008.01a1.625 1.625 0 00.276 2.519c2.088 1.333 4.608 1.117 6.593-.508l2.808 2.256L16 13.724zm-2.612 3.535a.812.812 0 01-.985.59l-4.236-1.058a.804.804 0 01-.275-.127l-2.677-1.912a.812.812 0 01.945-1.32l2.55 1.822 4.087 1.02a.813.813 0 01.591.985z" fill="#404040"/></svg>