<svg width="23" height="19" fill="none" xmlns="http://www.w3.org/2000/svg"><path d="M13.813 13H8.936V1.625A1.625 1.625 0 0110.563 0h1.624a1.625 1.625 0 011.626 1.625V13zm7.312 1.625h-19.5A1.625 1.625 0 000 16.25v.813a1.625 1.625 0 001.625 1.625h19.5a1.625 1.625 0 001.625-1.625v-.813a1.625 1.625 0 00-1.625-1.625zm0-2.031v-1.219a9.795 9.795 0 00-5.09-8.563.406.406 0 00-.598.359V13h5.282a.406.406 0 00.406-.406zM2.031 13h5.281V3.17a.406.406 0 00-.598-.358 9.795 9.795 0 00-5.089 8.563v1.219a.406.406 0 00.406.406z" fill="#404040"/></svg>