<svg width="22" height="22" fill="none" xmlns="http://www.w3.org/2000/svg"><path d="M21.313 17.875h-1.375V8.25a.687.687 0 000-1.375h-4.125v-2.75a.687.687 0 000-1.375H3.437a.688.688 0 100 1.375v13.75H2.063a.687.687 0 100 1.375h19.25a.687.687 0 100-1.375zM6.874 6.187H8.25a.688.688 0 110 1.375H6.875a.688.688 0 110-1.375zm-.688 4.125a.688.688 0 01.688-.687H8.25a.688.688 0 110 1.375H6.875a.687.687 0 01-.688-.688zm5.5 7.563H7.564V13.75h4.125v4.125zm.69-6.875H11a.687.687 0 110-1.375h1.375a.687.687 0 010 1.375zm0-3.438H11a.687.687 0 010-1.375h1.375a.687.687 0 010 1.375zm6.188 10.313h-2.75V8.25h2.75v9.625z" fill="#EB2B30"/></svg>