<svg width="32" height="32" fill="none" xmlns="http://www.w3.org/2000/svg"><path d="M29.966 26H28V12a2 2 0 00-2-2h-5.5a.5.5 0 00-.5.5V26h-2V4.05a2.053 2.053 0 00-.77-1.625 2 2 0 00-2.34-.086L4.89 9A2 2 0 004 10.667V26H2.034A1.023 1.023 0 001 26.934 1 1 0 002 28h28a1.001 1.001 0 001-1.066A1.022 1.022 0 0029.966 26zM9.5 23a1 1 0 01-1.066 1 1.023 1.023 0 01-.934-1.035v-1.931A1.024 1.024 0 018.434 20 1 1 0 019.5 21v2zm0-7a1 1 0 01-1.066 1 1.024 1.024 0 01-.934-1.035v-1.931A1.024 1.024 0 018.434 13 1 1 0 019.5 14v2zm5 7a.999.999 0 01-1.066 1 1.022 1.022 0 01-.934-1.033v-1.933A1.024 1.024 0 0113.434 20a1 1 0 011.066 1v2zm0-7a.999.999 0 01-1.066 1 1.024 1.024 0 01-.934-1.033v-1.933A1.024 1.024 0 0113.434 13a1 1 0 011.066 1v2z" fill="#fff"/></svg>