<svg width="24" height="24" fill="none" xmlns="http://www.w3.org/2000/svg"><path d="M7.65 10.353a.372.372 0 00-.428-.003c-.127.086-3.075 2.16-3.075 6.532 0 3.885 2.715 6.18 7.478 6.356-.701-.048-1.463-.258-1.946-.993-.312-.47-.51-1.148-.51-2.138 0-2.52 3.656-4.29 3.81-4.365a.38.38 0 01.405.053.381.381 0 01.12.39c-.371 1.305.105 1.87.66 2.523.401.477.855 1.013.949 1.842.075.66-.094 1.248-.492 1.706a.066.066 0 01-.019.026c-.524.585-1.45.945-2.497.964.041.004.082.004.124.004 4.702 0 7.623-2.243 7.623-5.854 0-3.488-1.732-5.46-3.262-7.204-1.189-1.354-2.216-2.524-2.216-4.159 0-2.887 1.541-4.638 1.556-4.657a.373.373 0 00-.428-.593c-.24.105-5.876 2.663-5.876 7.25 0 2.07.413 3.262.713 4.135.333.964.442 1.29-.259 1.992-.45.45-.956.55-1.425.28-.795-.46-1.346-1.874-.859-3.685a.373.373 0 00-.146-.402zm8.647 1.71a9 9 0 011.913 3.942.376.376 0 01-.293.442.376.376 0 01-.442-.289 8.27 8.27 0 00-1.751-3.61.375.375 0 11.573-.485zm-1.316-.405a.36.36 0 01-.236-.086 2.67 2.67 0 00-.202-.154.377.377 0 01-.098-.52.378.378 0 01.521-.098s.094.063.255.195a.374.374 0 01-.24.663z" fill="#fff"/><path d="M12 23.25c.034 0 .071 0 .105-.004a6.2 6.2 0 01-.105.004z" fill="#fff"/></svg>