<svg width="18" height="18" fill="none" xmlns="http://www.w3.org/2000/svg"><path d="M17.227 7.78a1.125 1.125 0 00-.915-.468h-1.125V6.188a1.125 1.125 0 00-1.124-1.125H9.188L7.238 3.6a1.135 1.135 0 00-.675-.225h-3.75A1.125 1.125 0 001.687 4.5v10.125a.562.562 0 00.563.563h12.593a.562.562 0 00.534-.385l2.003-6.01a1.127 1.127 0 00-.153-1.014zM6.563 4.5l2.1 1.575A.562.562 0 009 6.187h5.063v1.125H4.905a1.125 1.125 0 00-1.068.77l-1.026 3.077V4.5h3.751zm7.875 9.563H3.03l1.876-5.626h11.407l-1.875 5.626z" fill="#fff"/></svg>