<svg width="17" height="17" fill="none" xmlns="http://www.w3.org/2000/svg"><path d="M8.125 0a8.125 8.125 0 108.125 8.125A8.134 8.134 0 008.125 0zM15 8.125c0 .634-.087 1.265-.26 1.875h-3.01a12.304 12.304 0 000-3.75h3.009c.173.61.26 1.241.26 1.875zM6.094 11.25h4.062a8.993 8.993 0 01-2.031 3.516 9.005 9.005 0 01-2.031-3.516zM5.789 10a11.003 11.003 0 010-3.75h4.678c.215 1.24.215 2.51 0 3.75H5.79zM1.25 8.125c0-.634.087-1.265.26-1.875h3.01a12.3 12.3 0 000 3.75H1.51a6.845 6.845 0 01-.26-1.875zM10.156 5H6.094a8.993 8.993 0 012.031-3.516A9.006 9.006 0 0110.156 5zm4.088 0h-2.782A10.569 10.569 0 009.72 1.437 6.898 6.898 0 0114.248 5h-.003zM6.53 1.437A10.569 10.569 0 004.788 5H2.002A6.898 6.898 0 016.53 1.437zM2.002 11.25h2.786a10.58 10.58 0 001.742 3.563 6.898 6.898 0 01-4.528-3.563zm7.718 3.563a10.569 10.569 0 001.742-3.563h2.786a6.9 6.9 0 01-4.528 3.563z" fill="#EB2B30"/></svg>