<svg width="24" height="24" fill="none" xmlns="http://www.w3.org/2000/svg"><path d="M23.84 10.117L21.449 5.33a1.5 1.5 0 00-2.013-.67l-2.331 1.165-4.912-1.3a.763.763 0 00-.384 0l-4.912 1.3-2.331-1.166a1.5 1.5 0 00-2.013.67L.159 10.117a1.5 1.5 0 00.67 2.013l2.532 1.266 5.202 3.715a.754.754 0 00.254.117l6 1.5a.75.75 0 00.713-.196l3.75-3.75 1.413-1.414 2.477-1.239a1.5 1.5 0 00.67-2.011zm-5.145 3.128l-3.226-2.584a.75.75 0 00-1.002.058c-1.67 1.681-3.53 1.469-4.717.719L13.804 7.5h2.982l2.55 5.101-.641.644zm-3.926 3.924l-5.448-1.362-4.613-3.294 2.625-5.25L12 6.026l.919.243L8.7 10.364l-.008.008a1.5 1.5 0 00.255 2.326c1.928 1.231 4.254 1.032 6.086-.468l2.592 2.082-2.856 2.857zm-2.41 3.263a.75.75 0 01-.91.546L7.539 20a.738.738 0 01-.255-.117l-2.47-1.765a.75.75 0 01.872-1.219l2.354 1.682 3.773.942a.75.75 0 01.545.909z" fill="#EB2B30"/></svg>