<svg width="20" height="20" fill="none" xmlns="http://www.w3.org/2000/svg"><path d="M17.462 9.91a7.838 7.838 0 00-3.365-5.947v2.39a.316.316 0 01-.631 0V3.315a.445.445 0 00-.407-.474h-1.5l.509 5.666a.315.315 0 11-.629.057l-.571-6.316a.496.496 0 00-.499-.458h-.798a.502.502 0 00-.502.458l-.025.278-.007.063-.536 5.975a.315.315 0 01-.629-.057l.509-5.666H6.856a.442.442 0 00-.404.474v3.036a.316.316 0 01-.631 0V4.02a7.863 7.863 0 00-3.283 5.89.904.904 0 00-.871.902v.578a.907.907 0 00.902.903H17.43a.906.906 0 00.903-.903v-.578a.905.905 0 00-.87-.902zm-1.36 4.788c-.161-.612-.84-1.073-1.651-1.073H5.549c-.912.013-1.66.552-1.685 1.348v1.995c0 .682.697 1.237 1.553 1.237h1.272c1.36 0 2.468-.896 2.468-1.998a.489.489 0 01.502-.47h.593a.487.487 0 01.502.47c0 1.102 1.108 1.998 2.469 1.998h1.36c.858 0 1.557-.558 1.553-1.243-.006-.228.03-2.09-.034-2.264zm-14.432.417v.682a.921.921 0 00.972.859h.59v-1.683c.002-.248.057-.494.161-.72h-.751a.922.922 0 00-.972.862zm15.58-.603h-.549a1.6 1.6 0 01.067.46v1.673c.01.212 0 .423-.032.632h.515a.973.973 0 00.972-.972v-.824a.972.972 0 00-.972-.97z" fill="#fff"/></svg>