<svg width="40" height="40" fill="none" xmlns="http://www.w3.org/2000/svg"><path d="M34.924 19.821a15.675 15.675 0 00-6.73-11.894v4.78a.631.631 0 01-1.262 0V6.633a.888.888 0 00-.814-.947h-3l1.017 11.332a.631.631 0 01-1.256.114L21.736 4.499a.993.993 0 00-.997-.915H19.14a1.003 1.003 0 00-1.003.915l-.05.556-.014.126L17 17.132a.63.63 0 01-1.256-.114L16.76 5.686h-3.049a.884.884 0 00-.808.947v6.074a.631.631 0 01-1.262 0c0-1.03-.001-3.668 0-4.666a15.725 15.725 0 00-6.566 11.78 1.81 1.81 0 00-1.743 1.806v1.155a1.814 1.814 0 001.806 1.806H34.86a1.813 1.813 0 001.806-1.806v-1.155a1.81 1.81 0 00-1.743-1.806zm-2.721 9.577c-.322-1.224-1.679-2.146-3.302-2.146H11.1c-1.824.025-3.323 1.104-3.372 2.696v3.99c0 1.363 1.396 2.474 3.106 2.474h2.545c2.72 0 4.936-1.793 4.936-3.996a.978.978 0 011.004-.94h1.187a.974.974 0 011.004.94c0 2.203 2.216 3.996 4.937 3.996h2.72c1.716 0 3.115-1.116 3.107-2.487-.013-.454.06-4.177-.07-4.527zM3.34 30.23v1.364a1.843 1.843 0 001.944 1.717h1.18c.002-.763 0-2.583 0-3.365.003-.497.113-.988.323-1.44H5.284A1.843 1.843 0 003.34 30.23zm31.161-1.205h-1.098c.088.3.133.61.132.922v3.346c.022.422 0 .845-.063 1.263h1.03a1.945 1.945 0 001.944-1.945v-1.647a1.944 1.944 0 00-1.945-1.939z" fill="#EB2B30"/></svg>