<svg width="24" height="24" fill="none" xmlns="http://www.w3.org/2000/svg"><path d="M10.986 17.695a1.124 1.124 0 010 1.593l-.48.48a5.462 5.462 0 01-3.887 1.607 5.495 5.495 0 01-3.887-9.382L5.99 8.735a5.497 5.497 0 019.24 2.635 1.125 1.125 0 11-2.191.51 3.248 3.248 0 00-5.458-1.554l-3.258 3.258a3.245 3.245 0 104.589 4.59l.479-.48a1.124 1.124 0 011.595 0zm10.28-13.46a5.498 5.498 0 00-7.775 0l-.48.479a1.127 1.127 0 001.594 1.594l.48-.48a3.248 3.248 0 014.594 4.593l-3.263 3.254a3.224 3.224 0 01-2.296.95 3.246 3.246 0 01-3.159-2.505 1.125 1.125 0 10-2.192.51 5.497 5.497 0 005.346 4.245h.005a5.463 5.463 0 003.888-1.61l3.257-3.257a5.497 5.497 0 000-7.773z" fill="#EB2B30"/></svg>