<svg width="15" height="17" fill="none" xmlns="http://www.w3.org/2000/svg"><path fill-rule="evenodd" clip-rule="evenodd" d="M7.083 5.187c-.989 0-1.79.823-1.79 1.838 0 1.015.801 1.838 1.79 1.838.99 0 1.791-.823 1.791-1.838 0-1.015-.802-1.838-1.79-1.838zM4.16 7.025c0-1.657 1.31-3 2.924-3 1.615 0 2.925 1.343 2.925 3s-1.31 3-2.925 3c-1.615 0-2.924-1.343-2.924-3z" fill="#EB2B30"/><path fill-rule="evenodd" clip-rule="evenodd" d="M7.086 1.163C4.504 1.161 1.978 2.7 1.304 5.743c-.8 3.62 1.387 6.76 3.444 8.795a3.297 3.297 0 004.662 0h.001c2.065-2.035 4.25-5.167 3.452-8.788-.671-3.044-3.195-4.585-5.777-4.587zm6.883 4.33C13.159 1.823 10.095.003 7.087 0 4.078-.002 1.011 1.814.197 5.485c-.939 4.256 1.65 7.8 3.764 9.89v.001a4.41 4.41 0 006.235 0c2.122-2.091 4.71-5.627 3.772-9.883z" fill="#EB2B30"/></svg>