<svg width="18" height="18" fill="none" xmlns="http://www.w3.org/2000/svg"><path d="M15.13 8.262a.625.625 0 00-.619.632v5.09c0 .69-.553 1.255-1.231 1.255H4.72c-.68 0-1.231-.564-1.231-1.256V5.378c0-.693.553-1.256 1.231-1.256h2.72c.343 0 .62-.282.62-.631a.625.625 0 00-.62-.632H4.72c-1.362 0-2.47 1.13-2.47 2.519v8.604c0 1.388 1.108 2.518 2.47 2.518h8.56c1.362 0 2.47-1.13 2.47-2.518v-5.09a.625.625 0 00-.62-.632v.002zm-3.689.464c.17.286.466.455.792.455h.004a.906.906 0 00.79-.457l1.254-2.136a3 3 0 00.867-2.115c0-1.64-1.308-2.973-2.916-2.973-1.608 0-2.917 1.334-2.917 2.973 0 .792.314 1.556.864 2.111l1.258 2.142h.004zm.794-5.963c.925 0 1.678.768 1.678 1.71a1.7 1.7 0 01-.537 1.252l-.066.062-1.075 1.83-1.076-1.83-.064-.06a1.728 1.728 0 01-.536-1.252c0-.942.752-1.71 1.678-1.71l-.002-.002zm0 2.133a.654.654 0 00.648-.66.655.655 0 00-.648-.662.655.655 0 00-.648.661c0 .364.291.66.648.66zm-7.1 9.395a.613.613 0 00.858-.177l1.942-2.97a.642.642 0 00-.02-.73L5.732 7.446a.612.612 0 00-.868-.126.64.64 0 00-.123.885l1.923 2.613-1.7 2.599a.64.64 0 00.172.875zm7.627-.142a.601.601 0 00.377-.131.64.64 0 00.114-.886L7.669 5.707a.612.612 0 00-.869-.116.64.64 0 00-.114.886l5.583 7.424a.614.614 0 00.493.248z" fill="#fff"/></svg>