<svg width="24" height="24" fill="none" xmlns="http://www.w3.org/2000/svg"><g clip-path="url(#clip0_13129_4254)" fill="#EB2B30"><path d="M20.581 8.218l-.695.696a.68.68 0 01-.568.202l-1.895-.19a7.778 7.778 0 01-6.55 11.98 7.75 7.75 0 01-5.501-2.279 7.751 7.751 0 01-2.278-5.5 7.752 7.752 0 012.279-5.501 7.75 7.75 0 015.5-2.279 7.732 7.732 0 014.2 1.23l-.19-1.895a.703.703 0 01.203-.568l.696-.695a10.826 10.826 0 00-4.909-1.165 10.802 10.802 0 00-7.688 3.184A10.802 10.802 0 000 13.127a10.8 10.8 0 003.185 7.688A10.802 10.802 0 0010.873 24c2.905 0 5.635-1.13 7.689-3.185a10.802 10.802 0 003.184-7.688c0-1.734-.403-3.406-1.165-4.909z"/><path d="M17.247 13.127a6.341 6.341 0 00-1.398-3.982l-1.707 1.707c.45.646.716 1.43.716 2.275a3.989 3.989 0 01-3.985 3.984 3.989 3.989 0 01-3.984-3.984 3.989 3.989 0 013.984-3.985c.845 0 1.63.266 2.275.716l1.707-1.707a6.373 6.373 0 102.392 4.976z"/><path d="M10.873 13.83a.703.703 0 01-.497-1.2l1.754-1.754a2.578 2.578 0 10.994.995l-1.753 1.753a.701.701 0 01-.498.206zM22.209 2.786L23.794 1.2A.703.703 0 1022.8.206L21.214 1.79l.091.904.904.09zm.366 1.45l-1.982-.199a.703.703 0 01-.63-.63l-.199-1.982-3.448 3.448.256 2.555 2.555.256 3.448-3.448z"/></g><defs><clipPath id="clip0_13129_4254"><path fill="#fff" d="M0 0h24v24H0z"/></clipPath></defs></svg>