<svg width="112" height="80" fill="none" xmlns="http://www.w3.org/2000/svg"><path fill-rule="evenodd" clip-rule="evenodd" d="M11.61 79.997h71.17c6.385 0 11.61-5.225 11.61-11.61V28.805c0-2.095-.562-4.065-1.543-5.767H1.543A11.514 11.514 0 000 28.806v39.58c0 6.386 5.225 11.61 11.61 11.61z" fill="#EE5057"/><path fill-rule="evenodd" clip-rule="evenodd" d="M11.611 80.002H82.78c4.291 0 8.058-2.359 10.067-5.844L51.47 43.838c-2.85-1.926-5.699-2.017-8.548 0L1.544 74.158c2.01 3.485 5.776 5.844 10.067 5.844z" fill="#EB2B30"/><path fill-rule="evenodd" clip-rule="evenodd" d="M11.611 17.195H82.78c4.291 0 8.058 2.36 10.067 5.845L51.47 53.36c-2.85 1.926-5.699 2.017-8.548 0L1.544 23.04c2.01-3.486 5.776-5.845 10.067-5.845z" fill="#F27D82"/><path d="M85.57 13.703c6.763 0 12.28 5.517 12.28 12.278 0 6.763-5.517 12.28-12.28 12.28-6.761 0-12.277-5.518-12.277-12.28 0-6.761 5.516-12.278 12.278-12.278z" fill="#fff" stroke="#EB2B30"/><path fill-rule="evenodd" clip-rule="evenodd" d="M93.883 9.436a1.102 1.102 0 11-2.203 0V1.102a1.101 1.101 0 112.203 0v8.334zm4.313 1.747l4.167-7.218a1.1 1.1 0 10-1.905-1.102l-4.167 7.218a1.1 1.1 0 001.905 1.102zm2.865 3.668a1.1 1.1 0 01-1.102-1.905l7.218-4.168a1.1 1.1 0 111.101 1.905l-7.217 4.168zm.645 4.61a1.101 1.101 0 11-.001-2.203h8.335a1.103 1.103 0 010 2.204h-8.334z" fill="#04805A"/><path d="M92.204 23.097l-8.683 8.651a.814.814 0 01-1.153 0l-3.799-3.785a.813.813 0 111.153-1.149l3.223 3.211 8.107-8.076a.817.817 0 011.392.574.811.811 0 01-.239.575l-.001-.001z" fill="#04805A"/></svg>