<svg width="18" height="18" fill="none" xmlns="http://www.w3.org/2000/svg"><path fill-rule="evenodd" clip-rule="evenodd" d="M7.894 1.5c.1 0 .192.034.26.102a.36.36 0 01.102.259v.944a.361.361 0 01-.102.26.36.36 0 01-.26.1h-.237v.653c1.44.2 2.56 1.181 2.908 2.107a.823.823 0 01.753.818c0 .395-.287.72-.645.802v.544l.063-.093.083-.127.021-.033.006-.008.001-.003.008-.013.01-.01a.413.413 0 01.277-.13.34.34 0 01.293.15l.021.033v.004l.011.018.086.132.312.477c.193.298.432.68.682 1.1l.251.432.005.008.003.008c.063.157.039.372-.146.483l-.01.005-.009.004c-.157.063-.371.039-.482-.146l-.001-.001a44.73 44.73 0 00-1.039-1.694 33.108 33.108 0 00-1.36 2.265c-.266.493-.51.99-.689 1.432-.18.447-.285.825-.285 1.086a2.336 2.336 0 002.334 2.334 2.35 2.35 0 002-1.14 1.975 1.975 0 01-1.164-1.793c0-.232.082-.52.2-.822.12-.305.284-.637.461-.962.354-.65.766-1.281.997-1.627l.007-.011.009-.01a.413.413 0 01.276-.13c.087 0 .188.027.263.111l.03.04.002.001c.078.123.49.734.882 1.426.195.346.387.716.53 1.059.142.339.243.667.243.925a1.94 1.94 0 01-1.95 1.95h-.034a3.038 3.038 0 01-2.73 1.681h-8.82a.823.823 0 01-.176-1.625v-2.861a.814.814 0 01-.645-.803c0-.395.287-.721.645-.803V7.547a.814.814 0 01-.645-.804c0-.416.321-.783.753-.818.35-.926 1.468-1.907 2.91-2.107v-.652h-.24a.36.36 0 01-.259-.102.36.36 0 01-.1-.259v-.944a.36.36 0 01.1-.259.361.361 0 01.26-.102h2.97zm-5.05 8.89h5.465a.36.36 0 01.26.101.36.36 0 01.1.26.36.36 0 01-.1.259.36.36 0 01-.26.101H2.321a.1.1 0 00-.099.1c0 .024.01.052.028.073.018.02.036.026.048.026h5.528c.098 0 .19.034.259.102a.36.36 0 01.101.26.36.36 0 01-.101.258.361.361 0 01-.26.103H2.844v2.824H7.71a.36.36 0 01.26.102.36.36 0 01.1.259.36.36 0 01-.1.26.361.361 0 01-.26.101H2.321a.1.1 0 000 .2h6.834a3.04 3.04 0 01-1.092-2.334c0-.293.087-.65.218-1.029.132-.38.314-.792.513-1.197.388-.79.845-1.56 1.135-2.026V7.564H2.843v2.826zm-.736 5.373l.006.012a.233.233 0 01-.019-.053l.013.041zm11.484-.711zm-5.664.082l-.002-.006a.243.243 0 01.01.04l-.008-.034zm5.978-4.829c-.184.297-.454.738-.695 1.184a8.305 8.305 0 00-.38.786c-.1.246-.154.443-.154.571 0 .688.54 1.228 1.228 1.228a1.23 1.23 0 001.229-1.228c0-.118-.046-.297-.133-.521a7.347 7.347 0 00-.342-.734 18.909 18.909 0 00-.753-1.286zm0-.245a23.076 23.076 0 01.203.32l-.204-.32zm-3.85.098c-.138.237-.277.483-.411.73l.204-.368.207-.362zm-7.907.383zm10.354-.115a.289.289 0 01.046-.007l-.046.007zm.203-.213a.295.295 0 00-.007-.086l.007.045a.274.274 0 010 .041zM2.321 6.643a.1.1 0 000 .2h8.153a.103.103 0 00.066-.034.103.103 0 00.034-.066.1.1 0 00-.1-.1H2.32zm-.213.185l.006.012a.233.233 0 01-.019-.054l.013.042zM5.883 4.14a.361.361 0 01-.1.259.361.361 0 01-.26.102c-.477 0-1.03.18-1.51.475-.412.254-.757.586-.954.945h6.673c-.198-.342-.537-.671-.943-.928-.477-.302-1.029-.492-1.516-.492a.361.361 0 01-.26-.102.361.361 0 01-.101-.26v-.974H5.883v.975zm-.599-1.697h2.227v-.222H5.284v.222z" fill="#fff"/></svg>