<svg width="18" height="18" fill="none" xmlns="http://www.w3.org/2000/svg"><path fill-rule="evenodd" clip-rule="evenodd" d="M5.908 11.296c.288 0 .564.098.768.303.205.205.304.48.304.768a.46.46 0 01-.014.112 3.828 3.828 0 01-.533 1.202l.04.027c.056-.075.119-.183.188-.321.061-.123.15-.315.212-.432.034-.063.078-.142.132-.21a.669.669 0 01.13-.124.513.513 0 01.627.015.622.622 0 01.13.148c.049.077.084.164.108.23.049.131.098.31.139.446l.048.151c.132-.099.287-.227.44-.362a16.012 16.012 0 00.58-.544l.037-.037.013-.013a.46.46 0 01.681.615l-.032.034-.015.015-.04.04a19.721 19.721 0 01-.615.576c-.176.157-.37.321-.546.449-.088.063-.18.125-.27.173a.804.804 0 01-.369.106.608.608 0 01-.433-.19 1.002 1.002 0 01-.177-.255 2.028 2.028 0 01-.082-.192 2.2 2.2 0 01-.181.274c-.11.136-.328.363-.658.363-.26 0-.49-.136-.646-.252-.016-.012-.032-.027-.048-.04a3.255 3.255 0 01-.267.21.459.459 0 11-.526-.753c.062-.043.121-.09.18-.14a2.893 2.893 0 01-.2-.344 1.595 1.595 0 01-.176-.67c0-.598.346-1.161.926-1.355l.072-.017a.464.464 0 01.073-.006zm.074.928c-.124.074-.227.23-.227.45 0 .036.016.115.07.236.098-.186.176-.384.232-.59a.13.13 0 00-.03-.072.103.103 0 00-.045-.024z" fill="#fff"/><path d="M12.03 10.071a.46.46 0 010 .919H7.746a.46.46 0 010-.919h4.286zm0-1.836a.46.46 0 010 .918H5.297a.46.46 0 110-.918h6.735zm0-1.837a.46.46 0 110 .918H5.297a.46.46 0 010-.918h6.735zM8.97 4.561a.46.46 0 010 .919H5.295a.46.46 0 110-.919h3.673z" fill="#fff"/><path fill-rule="evenodd" clip-rule="evenodd" d="M10.806 1.5a.46.46 0 01.086.008l.006.001.025.008c.02.005.04.01.06.018a.416.416 0 01.051.028c.01.005.019.009.027.015.015.01.027.021.04.033l.03.024 3.061 3.06a.458.458 0 01.134.325v10.102A1.4 1.4 0 0112.95 16.5H4.378A1.4 1.4 0 013 15.122V2.878A1.4 1.4 0 014.378 1.5h6.428zm-6.428.918a.483.483 0 00-.46.46v12.244c0 .237.223.46.46.46h8.571c.236 0 .46-.223.46-.46V5.48h-1.684a1.4 1.4 0 01-1.378-1.378V2.418h-5.97zm6.887 1.684c0 .236.223.46.46.46h1.034l-1.494-1.494v1.034z" fill="#fff"/></svg>