<svg width="40" height="40" fill="none" xmlns="http://www.w3.org/2000/svg"><path d="M10.113 20v5.435c.28-.045.564-.067.848-.067H29.04c.283 0 .567.022.847.067V20a9.887 9.887 0 10-19.774 0zm18.927 7.063H10.96A4.242 4.242 0 006.723 31.3v4.52a.847.847 0 00.848.847h24.858a.848.848 0 00.848-.847V31.3a4.242 4.242 0 00-4.238-4.238zM20.848 7.571v-3.39a.848.848 0 00-1.695 0v3.39a.848.848 0 001.695 0zM4.18 18.587h3.39a.848.848 0 000-1.694H4.18a.848.848 0 000 1.694zM9.014 6.754a.847.847 0 000 1.198l2.397 2.397a.86.86 0 001.198 0 .847.847 0 000-1.198l-2.397-2.397a.847.847 0 00-1.198 0zm20.774.001L27.39 9.15a.847.847 0 000 1.199.859.859 0 001.198 0l2.397-2.397a.847.847 0 10-1.198-1.198zm6.032 10.138h-3.39a.848.848 0 000 1.694h3.39a.847.847 0 100-1.694z" fill="#EB2B30"/></svg>