<svg width="20" height="20" fill="none" xmlns="http://www.w3.org/2000/svg"><path d="M5.057 10v2.718c.14-.023.281-.034.423-.034h9.04c.142 0 .283.011.424.034V10a4.943 4.943 0 10-9.887 0zm9.463 3.531H5.48a2.121 2.121 0 00-2.118 2.119v2.26a.424.424 0 00.423.424h12.43a.424.424 0 00.423-.424v-2.26a2.12 2.12 0 00-2.118-2.119zm-4.096-9.746V2.09a.424.424 0 00-.848 0v1.695a.424.424 0 00.848 0zM2.09 9.295h1.695a.424.424 0 100-.848H2.09a.424.424 0 000 .848zm2.417-5.919a.424.424 0 000 .6l1.198 1.198a.43.43 0 00.6 0 .424.424 0 000-.6l-1.2-1.198a.424.424 0 00-.6 0zm10.387.001l-1.199 1.199a.424.424 0 10.6.599l1.198-1.198a.423.423 0 10-.6-.6zm3.016 5.07h-1.695a.424.424 0 000 .848h1.695a.424.424 0 000-.848z" fill="#fff"/></svg>