<svg width="24" height="24" fill="none" xmlns="http://www.w3.org/2000/svg"><g clip-path="url(#clip0_13128_4121)" fill="#EB2B30"><path d="M12 12.98a.98.98 0 100-1.96.98.98 0 000 1.96z"/><path d="M12 6.7c-3.91 0-6.928 4.724-7.054 4.925a.704.704 0 000 .75c.126.2 3.143 4.926 7.054 4.926 3.91 0 6.928-4.725 7.054-4.926a.704.704 0 000-.75C18.928 11.425 15.911 6.7 12 6.7zm0 7.685A2.388 2.388 0 019.615 12 2.388 2.388 0 0112 9.614 2.388 2.388 0 0114.386 12 2.388 2.388 0 0112 14.385z"/><path d="M23.297 11.297h-.362c-.353-5.457-4.775-9.88-10.232-10.232V.703a.703.703 0 00-1.406 0v.362C5.84 1.418 1.417 5.84 1.065 11.297H.703a.703.703 0 000 1.406h.362c.353 5.457 4.775 9.88 10.232 10.232v.362a.703.703 0 001.406 0v-.362c5.457-.353 9.88-4.775 10.232-10.232h.362a.703.703 0 000-1.406zm-10.594 10.23v-.159a.703.703 0 00-1.406 0v.158c-4.708-.344-8.479-4.115-8.823-8.823h.158a.703.703 0 100-1.406h-.158c.344-4.708 4.115-8.479 8.823-8.823v.158a.703.703 0 001.406 0v-.158c4.708.344 8.479 4.115 8.823 8.823h-.158a.703.703 0 000 1.406h.158c-.344 4.708-4.115 8.479-8.823 8.823z"/></g><defs><clipPath id="clip0_13128_4121"><path fill="#fff" d="M0 0h24v24H0z"/></clipPath></defs></svg>