<svg width="40" height="40" fill="none" xmlns="http://www.w3.org/2000/svg"><path d="M20 29.352c.4.267.818.508 1.25.721v6.177a1.25 1.25 0 01-2.5 0v-6.177c.432-.213.85-.454 1.25-.721zM30.953 9.78a11.875 11.875 0 00-21.906 0A11.204 11.204 0 002.5 19.969c-.016 5.969 5 11.125 10.96 11.281 1.832.044 3.648-.36 5.29-1.177v-5.551l-6.81-3.403a1.251 1.251 0 011.12-2.238l5.69 2.847V13.75a1.25 1.25 0 112.5 0v4.228l5.69-2.847a1.249 1.249 0 011.808 1.03 1.252 1.252 0 01-.689 1.208l-6.809 3.403v9.302a11.278 11.278 0 005 1.176h.284c5.966-.156 10.983-5.312 10.966-11.28a11.205 11.205 0 00-6.547-10.19z" fill="#EB2B30"/></svg>