<svg width="18" height="18" fill="none" xmlns="http://www.w3.org/2000/svg"><path d="M8.75 13.43c.2.133.41.254.625.36v3.089a.625.625 0 11-1.25 0V13.79a5.66 5.66 0 00.625-.361zm5.477-9.786a5.937 5.937 0 00-10.954 0A5.602 5.602 0 000 8.738c-.008 2.985 2.5 5.563 5.48 5.64a5.642 5.642 0 002.645-.587v-2.776L4.72 9.313a.625.625 0 01.56-1.118l2.845 1.423v-3.99a.625.625 0 011.25 0v2.115L12.22 6.32a.626.626 0 01.56 1.118L9.375 9.14v4.65a5.637 5.637 0 002.5.589h.142C15 14.3 17.51 11.723 17.5 8.739a5.601 5.601 0 00-3.273-5.095z" fill="#fff"/></svg>