<svg width="18" height="18" fill="none" xmlns="http://www.w3.org/2000/svg"><path d="M13.64 1.5H4.36A2.865 2.865 0 001.5 4.36v9.28a2.865 2.865 0 002.86 2.86h9.28a2.865 2.865 0 002.86-2.86V4.36a2.865 2.865 0 00-2.86-2.86zm1.86 12.14a1.865 1.865 0 01-1.86 1.86H4.36a1.865 1.865 0 01-1.86-1.86V4.36A1.865 1.865 0 014.36 2.5h9.28a1.865 1.865 0 011.86 1.86v9.28z" fill="#fff"/><path d="M13.5 9.92a.5.5 0 00-.5.5v1.875L5.705 5H7.58a.5.5 0 100-1H4.345A.345.345 0 004 4.345V7.58a.5.5 0 101 0V5.705L12.295 13H10.42a.5.5 0 000 1h3.235a.345.345 0 00.345-.345V10.42a.5.5 0 00-.5-.5z" fill="#fff"/></svg>