<svg width="296" height="240" fill="none" xmlns="http://www.w3.org/2000/svg"><path d="M233.052 186.818a.471.471 0 00-.647-.167l-1.566.927-.926-1.568a.471.471 0 10-.813.481l.926 1.568-1.567.927a.473.473 0 00.481.814l1.566-.927.926 1.569a.473.473 0 00.813-.481l-.926-1.569 1.567-.926a.475.475 0 00.166-.648zm3.972 10.381a2.06 2.06 0 01-2.057-2.058 2.06 2.06 0 012.057-2.059 2.059 2.059 0 010 4.117zm0-3.017a.96.96 0 000 1.917.959.959 0 000-1.917zm-207.749 33.24a2.06 2.06 0 010-4.117 2.06 2.06 0 010 4.117zm0-3.017a.959.959 0 000 1.917.959.959 0 000-1.917zM257.049 6a2.06 2.06 0 01-2.057-2.059 2.06 2.06 0 012.057-2.058 2.06 2.06 0 012.056 2.058A2.06 2.06 0 01257.049 6zm0-3.017a.96.96 0 000 1.917.96.96 0 000-1.917zm35.209 55.167a.472.472 0 00-.218.632l.797 1.637-1.636.798a.47.47 0 00-.217.632.468.468 0 00.631.218l1.635-.798.797 1.637a.473.473 0 00.871-.053.472.472 0 00-.022-.36l-.797-1.639 1.636-.797a.475.475 0 00.217-.632.472.472 0 00-.631-.218l-1.636.798-.797-1.638a.47.47 0 00-.63-.218zM262.54 97.336a2.06 2.06 0 010-4.117 2.06 2.06 0 012.057 2.058 2.06 2.06 0 01-2.057 2.059zm0-3.017a.959.959 0 10.003 1.917.959.959 0 00-.003-1.917zM.253 126.042a.47.47 0 00-.021.668l1.244 1.328-1.327 1.247a.47.47 0 10.646.689l1.327-1.246 1.245 1.329a.473.473 0 10.689-.647l-1.245-1.329 1.327-1.246a.475.475 0 00.021-.668.472.472 0 00-.667-.022l-1.327 1.246-1.245-1.328a.471.471 0 00-.667-.021zM20.52 148.68a2.06 2.06 0 010-4.118 2.06 2.06 0 010 4.118zm0-3.017a.959.959 0 000 1.917.96.96 0 000-1.917zm35.413 67.74a.418.418 0 01-.023-.837 50.08 50.08 0 004.152-.41.419.419 0 11.117.829 50.458 50.458 0 01-4.222.417l-.024.001zm-5.888-.018l-.026-.001a50.144 50.144 0 01-4.22-.445.419.419 0 01.124-.829c1.37.204 2.765.351 4.148.438a.418.418 0 01-.026.837zm15.848-1.558a.418.418 0 01-.106-.824 49.892 49.892 0 003.987-1.229.42.42 0 01.28.79c-1.326.471-2.69.891-4.054 1.25a.437.437 0 01-.107.013zm-25.796-.096a.423.423 0 01-.11-.015 50.327 50.327 0 01-4.043-1.292.42.42 0 01.289-.787c1.3.477 2.638.905 3.974 1.27a.42.42 0 01-.11.824zm35.24-3.439a.42.42 0 01-.187-.795 48.936 48.936 0 003.656-2.01.418.418 0 11.434.717 50.41 50.41 0 01-3.718 2.044.412.412 0 01-.186.044zm-44.65-.194a.428.428 0 01-.188-.045 51.161 51.161 0 01-3.7-2.078.42.42 0 01.44-.713 50.052 50.052 0 003.638 2.043.42.42 0 01-.19.793zm53.178-5.18a.42.42 0 01-.258-.749 49.793 49.793 0 003.174-2.709.419.419 0 01.57.614 50.153 50.153 0 01-3.23 2.755.414.414 0 01-.256.089zm-61.665-.267a.418.418 0 01-.26-.091 50.705 50.705 0 01-3.21-2.777.42.42 0 01.573-.611c1.01.95 2.071 1.869 3.157 2.732a.418.418 0 01-.26.747zm68.936-6.722a.418.418 0 01-.319-.69 50.027 50.027 0 002.568-3.293.42.42 0 01.68.488 51.031 51.031 0 01-2.61 3.348.418.418 0 01-.319.147zm-76.16-.316a.42.42 0 01-.322-.149 50.607 50.607 0 01-2.586-3.367.42.42 0 01.685-.482 49.441 49.441 0 002.542 3.31.419.419 0 01-.32.688zm81.886-7.992a.419.419 0 01-.366-.621 49.962 49.962 0 001.857-3.74.418.418 0 11.765.341 50.763 50.763 0 01-1.888 3.803.418.418 0 01-.368.217zm-87.547-.36a.419.419 0 01-.369-.22 50.306 50.306 0 01-1.85-3.821.419.419 0 11.768-.334 49.11 49.11 0 001.82 3.757.42.42 0 01-.369.618zm91.495-8.93a.419.419 0 01-.399-.543c.41-1.325.769-2.683 1.066-4.037a.419.419 0 11.818.179 50.201 50.201 0 01-1.085 4.106.419.419 0 01-.4.295zm-95.348-.396a.418.418 0 01-.4-.299 51.168 51.168 0 01-1.044-4.115.42.42 0 11.82-.173c.284 1.361.63 2.723 1.026 4.048a.419.419 0 01-.402.539zm97.342-9.501l-.041-.002a.42.42 0 01-.376-.458c.134-1.379.211-2.782.227-4.169a.419.419 0 11.837.01 50.001 50.001 0 01-.231 4.24.419.419 0 01-.416.379zm-99.25-.411a.42.42 0 01-.417-.382 50.485 50.485 0 01-.203-4.242.42.42 0 01.416-.422h.002a.42.42 0 01.419.417 49.74 49.74 0 00.2 4.172.42.42 0 01-.379.455l-.038.002zm99.199-9.683a.418.418 0 01-.416-.374 50.514 50.514 0 00-.616-4.132l-.01-.053a.418.418 0 11.821-.16l.011.054c.266 1.39.477 2.803.626 4.202a.418.418 0 01-.371.461l-.045.002zm-99.083-.414a.419.419 0 01-.416-.467c.158-1.401.38-2.813.658-4.196a.419.419 0 11.82.166 49.349 49.349 0 00-.647 4.125.419.419 0 01-.415.372zm96.999-9.518a.417.417 0 01-.398-.292 49.782 49.782 0 00-1.431-3.922.418.418 0 11.773-.32 50.428 50.428 0 011.455 3.988.42.42 0 01-.399.546zm-94.844-.345a.42.42 0 01-.398-.55c.44-1.339.942-2.677 1.493-3.975a.418.418 0 11.77.327 49.87 49.87 0 00-1.467 3.91.42.42 0 01-.398.288zm90.83-8.912a.418.418 0 01-.365-.214 49.505 49.505 0 00-2.195-3.551.42.42 0 01.693-.471 50.277 50.277 0 012.232 3.611.42.42 0 01-.365.625zm-86.733-.311a.418.418 0 01-.363-.627c.7-1.224 1.46-2.434 2.26-3.595a.418.418 0 11.688.475 50.12 50.12 0 00-2.22 3.536.419.419 0 01-.365.211zm80.93-7.939a.415.415 0 01-.315-.144 49.691 49.691 0 00-2.867-3.034.42.42 0 01.584-.601 50.783 50.783 0 012.915 3.086.42.42 0 01-.316.693zm-75.07-.275a.42.42 0 01-.314-.695 50.59 50.59 0 012.932-3.07.418.418 0 11.58.605 49.616 49.616 0 00-2.883 3.018.418.418 0 01-.315.142zm67.725-6.637a.417.417 0 01-.255-.086 50.199 50.199 0 00-3.415-2.398.42.42 0 01.451-.706 50.81 50.81 0 013.474 2.439.419.419 0 01-.255.751zm-60.34-.231a.42.42 0 01-.253-.753 49.807 49.807 0 013.49-2.415.42.42 0 01.446.709 49.485 49.485 0 00-3.431 2.374.417.417 0 01-.252.085zm51.758-5.069a.41.41 0 01-.182-.042 49.478 49.478 0 00-3.827-1.664.42.42 0 01.301-.782 50.257 50.257 0 013.891 1.692.42.42 0 01-.183.796zm-43.138-.166a.418.418 0 01-.18-.798 50.372 50.372 0 013.906-1.656.418.418 0 11.293.785 49.201 49.201 0 00-3.84 1.628.41.41 0 01-.18.041zm33.668-3.303a.41.41 0 01-.103-.013 49.464 49.464 0 00-4.083-.857.42.42 0 01.137-.827c1.39.231 2.786.524 4.152.872a.42.42 0 01-.103.825zm-24.17-.077a.419.419 0 01-.1-.826 51.957 51.957 0 014.16-.839.418.418 0 11.13.827 51.295 51.295 0 00-4.09.826.435.435 0 01-.1.012zm14.193-1.403l-.02-.001a50.934 50.934 0 00-4.171-.01.42.42 0 01-.033-.838 51.09 51.09 0 014.242.011.42.42 0 01-.018.838zm150.918 61.598l-.723.044a.418.418 0 01-.051-.837h.004a86.363 86.363 0 004.12-.331.419.419 0 01.086.834 90.06 90.06 0 01-3.436.29zm-6.528.179l-.032.001a87.81 87.81 0 01-4.169-.142.419.419 0 11.049-.836c1.368.079 2.757.126 4.128.14a.419.419 0 01.024.837zm15.706-1.258a.419.419 0 01-.097-.831 88.54 88.54 0 004.056-.791.418.418 0 11.179.818 87.539 87.539 0 01-4.138.804zm-25.642.587a.43.43 0 01-.08-.002 88.001 88.001 0 01-4.125-.619.42.42 0 01.144-.826 86.11 86.11 0 004.085.613.42.42 0 01-.024.834zm35.348-2.817a.42.42 0 01-.143-.821 86.1 86.1 0 003.939-1.247.418.418 0 11.271.792c-1.309.45-2.647.874-3.977 1.26a.405.405 0 01-.09.016zm-45.15 1.008a.428.428 0 01-.127-.012 86.09 86.09 0 01-4.034-1.091.419.419 0 11.238-.803c1.318.39 2.662.754 3.996 1.081a.418.418 0 01-.073.825zm54.539-4.332a.42.42 0 01-.189-.804 87.188 87.188 0 003.77-1.692.419.419 0 01.361.756 87.673 87.673 0 01-3.807 1.708.409.409 0 01-.135.032zm-64.074 1.406a.415.415 0 01-.172-.026 86.751 86.751 0 01-3.88-1.546.419.419 0 01.328-.771 88.042 88.042 0 003.843 1.532.418.418 0 01-.119.811zm73.013-5.783a.42.42 0 01-.233-.784 85.431 85.431 0 003.544-2.109.418.418 0 01.445.71 85.982 85.982 0 01-3.578 2.13.416.416 0 01-.178.053zm-82.146 1.786a.425.425 0 01-.216-.045 88.902 88.902 0 01-3.677-1.977.419.419 0 11.414-.729 88.425 88.425 0 003.642 1.959.419.419 0 01-.163.792zm90.52-7.157a.418.418 0 01-.273-.757 87.67 87.67 0 003.283-2.503.419.419 0 11.523.655 88.268 88.268 0 01-3.315 2.526.414.414 0 01-.218.079zm-99.136 2.147a.415.415 0 01-.257-.069 88.29 88.29 0 01-3.428-2.381.42.42 0 01-.091-.586.418.418 0 01.585-.091 86.62 86.62 0 003.395 2.359.419.419 0 01-.204.768zm106.848-8.443a.419.419 0 01-.31-.727 87.435 87.435 0 002.979-2.862.419.419 0 11.594.591 88.105 88.105 0 01-3.008 2.889.415.415 0 01-.255.109zm-114.838 2.489a.415.415 0 01-.295-.097 89.017 89.017 0 01-3.135-2.753.419.419 0 01.567-.617 87.331 87.331 0 003.105 2.727.42.42 0 01-.242.74zm121.788-9.625a.42.42 0 01-.343-.693 86.213 86.213 0 002.637-3.183.418.418 0 11.657.519 88.918 88.918 0 01-2.662 3.214.413.413 0 01-.289.143zm-129.05 2.806a.419.419 0 01-.33-.13 88.053 88.053 0 01-2.801-3.09.42.42 0 01.633-.548 88.28 88.28 0 002.774 3.061.419.419 0 01-.276.707zm135.15-10.687a.42.42 0 01-.372-.655 86.4 86.4 0 002.261-3.464.42.42 0 01.712.442 89.95 89.95 0 01-2.283 3.497.419.419 0 01-.318.18zm-141.588 3.09a.42.42 0 01-.362-.166 87.28 87.28 0 01-2.429-3.388.418.418 0 11.691-.472 87.158 87.158 0 002.407 3.355.42.42 0 01-.307.671zm146.758-11.615a.418.418 0 01-.396-.615 88.668 88.668 0 001.854-3.7.418.418 0 11.757.358 89.126 89.126 0 01-1.872 3.735.42.42 0 01-.343.222zm-152.287 3.336a.418.418 0 01-.388-.205 88.524 88.524 0 01-2.025-3.641.42.42 0 01.741-.39 86.2 86.2 0 002.006 3.606.42.42 0 01-.334.63zm156.457-12.398a.42.42 0 01-.417-.572 86.586 86.586 0 001.421-3.89.418.418 0 11.793.269 87.777 87.777 0 01-1.434 3.927.42.42 0 01-.363.266zm-161.003 3.538a.419.419 0 01-.41-.248 87.66 87.66 0 01-1.597-3.858.418.418 0 11.78-.302 85.968 85.968 0 001.583 3.82.42.42 0 01-.356.588zm164.112-13.022a.42.42 0 01-.432-.526c.353-1.33.679-2.686.967-4.03a.42.42 0 11.818.176 87.804 87.804 0 01-.975 4.069.423.423 0 01-.378.311zm-167.616 3.69a.418.418 0 01-.426-.293 88.334 88.334 0 01-1.146-4.015.419.419 0 01.811-.211 87.531 87.531 0 001.134 3.976.419.419 0 01-.373.543zm169.616-13.466a.419.419 0 01-.441-.478c.197-1.358.364-2.74.496-4.106a.42.42 0 01.834.08 88.57 88.57 0 01-.502 4.146.417.417 0 01-.387.358zm-172.031 3.795a.419.419 0 01-.438-.34 91.357 91.357 0 01-.684-4.119.42.42 0 01.829-.118 88.53 88.53 0 00.677 4.081.42.42 0 01-.384.496zm172.896-13.726a.42.42 0 01-.446-.43 86.39 86.39 0 00.024-4.137.419.419 0 11.837-.015 88.06 88.06 0 01-.024 4.176.419.419 0 01-.391.406zm-174.206 3.84a.419.419 0 01-.444-.386 89.638 89.638 0 01-.217-4.17.418.418 0 11.836-.024 87.933 87.933 0 00.216 4.131.42.42 0 01-.386.45h-.005zM287.784 80.9a.419.419 0 01-.444-.383 89.52 89.52 0 00-.444-4.114l-.018-.132a.42.42 0 01.83-.11l.018.134a89.64 89.64 0 01.448 4.151.42.42 0 01-.382.453h-.008zm-174.119 3.84a.419.419 0 01-.446-.434c.053-1.386.14-2.788.259-4.169a.419.419 0 11.834.072 87.493 87.493 0 00-.257 4.128.418.418 0 01-.39.402zm172.698-13.845a.42.42 0 01-.437-.336 87.717 87.717 0 00-.909-4.034.42.42 0 01.812-.204c.337 1.343.645 2.714.918 4.073a.418.418 0 01-.384.5zm-171.748 3.92a.42.42 0 01-.441-.482c.212-1.373.46-2.759.738-4.12a.418.418 0 11.82.167 85.534 85.534 0 00-.73 4.081.42.42 0 01-.387.355zM283.85 61.25a.42.42 0 01-.425-.29 85.303 85.303 0 00-1.363-3.904.42.42 0 01.784-.295 86.878 86.878 0 011.376 3.942.42.42 0 01-.372.547zm-167.148 3.8a.418.418 0 01-.43-.53 87.664 87.664 0 011.204-4.005.419.419 0 11.796.26 86.073 86.073 0 00-1.193 3.968.419.419 0 01-.377.307zm163.55-13.096a.42.42 0 01-.408-.244 86.547 86.547 0 00-1.802-3.722.418.418 0 11.745-.383 88.05 88.05 0 011.819 3.758.419.419 0 01-.354.591zm-160.358 3.64a.42.42 0 01-.415-.575 88.415 88.415 0 011.653-3.84.42.42 0 11.761.35 88.005 88.005 0 00-1.637 3.803.42.42 0 01-.362.262zM275.615 43.14a.42.42 0 01-.386-.202 86.487 86.487 0 00-2.212-3.485.42.42 0 01.696-.466 88.022 88.022 0 012.233 3.518.419.419 0 01-.331.635zm-151.472 3.428a.42.42 0 01-.395-.618 89.335 89.335 0 012.078-3.624.418.418 0 11.716.435 87.705 87.705 0 00-2.058 3.589.419.419 0 01-.341.218zm145.86-11.65a.417.417 0 01-.359-.162 87.972 87.972 0 00-2.597-3.211.42.42 0 01.638-.543 88.611 88.611 0 012.622 3.242.42.42 0 01-.304.674zm-140.616 3.17a.42.42 0 01-.37-.659 89.311 89.311 0 012.474-3.363.418.418 0 11.662.513 88.174 88.174 0 00-2.45 3.33.418.418 0 01-.316.179zm134.1-10.7a.419.419 0 01-.328-.127 88.338 88.338 0 00-2.946-2.897.42.42 0 01.572-.611 88.52 88.52 0 012.975 2.924.42.42 0 01-.273.71zM135.556 30.26a.418.418 0 01-.341-.696 89.19 89.19 0 012.837-3.06.418.418 0 11.6.585 87.96 87.96 0 00-2.81 3.03.417.417 0 01-.286.14zm120.6-9.618a.415.415 0 01-.292-.094 88.531 88.531 0 00-3.257-2.545.419.419 0 01.499-.673 87.692 87.692 0 013.288 2.57.42.42 0 01-.238.742zm-113.588 2.543a.419.419 0 01-.307-.73 88.448 88.448 0 013.164-2.715.418.418 0 11.53.649 87.277 87.277 0 00-3.134 2.69.418.418 0 01-.253.106zm105.538-8.415a.417.417 0 01-.254-.066 87.818 87.818 0 00-3.526-2.16.42.42 0 01.42-.726 88.113 88.113 0 013.56 2.181.42.42 0 01-.2.771zm-97.771 2.186a.42.42 0 01-.27-.76 87.801 87.801 0 013.45-2.334.419.419 0 01.452.705 87.003 87.003 0 00-3.417 2.313.413.413 0 01-.215.076zm89.105-7.108a.423.423 0 01-.213-.043 86.717 86.717 0 00-3.75-1.746.419.419 0 11.335-.768 87.905 87.905 0 013.786 1.763.418.418 0 01-.158.794zm-80.684 1.812a.42.42 0 01-.229-.785 87.595 87.595 0 013.701-1.928.418.418 0 11.369.753 86.541 86.541 0 00-3.666 1.908.408.408 0 01-.175.052zm71.511-5.716a.423.423 0 01-.169-.024 87.005 87.005 0 00-3.926-1.306.42.42 0 01.244-.801c1.326.405 2.66.85 3.965 1.318a.42.42 0 01-.114.813zM167.74 7.357a.419.419 0 01-.185-.806 87.266 87.266 0 013.897-1.488.42.42 0 01.28.79 86.562 86.562 0 00-3.86 1.474.41.41 0 01-.132.03zm52.964-4.242a.423.423 0 01-.123-.01 86.506 86.506 0 00-4.053-.847.418.418 0 11.151-.824 87.71 87.71 0 014.093.854.419.419 0 01-.068.827zm-43.547 1.002a.418.418 0 01-.139-.822 87.957 87.957 0 014.041-1.032.419.419 0 11.188.817 87.31 87.31 0 00-4.003 1.022.433.433 0 01-.087.015zm33.726-2.711a.414.414 0 01-.075-.002 86.587 86.587 0 00-4.115-.374.419.419 0 01.056-.836 87.4 87.4 0 014.154.377.418.418 0 01-.02.835zm-24.001.567a.419.419 0 01-.093-.832 89.662 89.662 0 014.133-.57.42.42 0 01.095.833 87.527 87.527 0 00-4.095.564.46.46 0 01-.04.005zM200.941.837A.419.419 0 11196.736.1h.007c1.385-.066 2.788-.1 4.17-.1a.42.42 0 01.028.837z" fill="#DEDEDE"/><path d="M214.692 52.104v144.16h-.378l-10.903-10.621-10.903 10.621h-1.135l-10.903-10.621-10.904 10.621h-1.12l-10.884-10.601-10.883 10.601h-1.115l-10.896-10.613-10.895 10.613h-1.15l-10.896-10.613-10.896 10.613h-1.136L88.82 185.671l-10.875 10.593h-.718V12.039h97.443l40.022 40.065z" fill="#F3F3F3"/><path d="M214.692 52.105H174.67V12.038l40.022 40.066z" fill="#DEDEDE"/><path d="M114.22 127.1v-5.392H99.685c-1.834 0-3.21-.415-4.126-1.246-.917-.831-1.375-1.961-1.375-3.391 0-.367.068-.739.203-1.116.135-.377.337-.773.608-1.189.27-.415.55-.816.84-1.202.289-.387.646-.86 1.07-1.421l15.346-20.55c1.004-1.352 1.829-2.333 2.476-2.942.646-.608 1.423-.913 2.331-.913 2.933 0 4.4 1.681 4.4 5.044v22.434h1.245c1.487 0 2.679.203 3.576.609.898.405 1.347 1.294 1.347 2.666 0 1.121-.367 1.938-1.101 2.45-.734.512-1.834.768-3.3.768h-1.766v5.391c0 1.488-.329 2.594-.985 3.319-.656.724-1.534 1.086-2.635 1.086-1.081 0-1.954-.372-2.62-1.115-.666-.744-.999-1.841-.999-3.29zm-12.45-11.884h12.45v-16.84l-12.45 16.84zm59.355-5.276c0 3.169-.194 5.893-.58 8.173-.386 2.28-1.1 4.348-2.142 6.203-1.313 2.28-3.011 4.039-5.096 5.275-2.085 1.236-4.401 1.855-6.949 1.855-2.934 0-5.564-.83-7.889-2.493-2.327-1.661-4.078-3.961-5.256-6.898-.598-1.604-1.037-3.377-1.317-5.319-.28-1.942-.42-4.043-.42-6.304 0-2.917.155-5.546.464-7.884.308-2.338.791-4.348 1.447-6.029 1.139-2.782 2.794-4.903 4.966-6.362 2.171-1.459 4.763-2.188 7.774-2.188 1.987 0 3.793.324 5.414.97a12.37 12.37 0 014.271 2.841c1.225 1.246 2.262 2.788 3.112 4.623 1.467 3.189 2.201 7.701 2.201 13.537zm-7.934-.58c0-3.536-.212-6.43-.637-8.681-.425-2.251-1.139-3.952-2.142-5.102-1.004-1.15-2.394-1.724-4.17-1.724-2.548 0-4.319 1.285-5.313 3.855-.994 2.57-1.491 6.531-1.491 11.883 0 3.633.212 6.609.637 8.928.425 2.318 1.139 4.072 2.143 5.26 1.003 1.189 2.364 1.783 4.082 1.783 1.776 0 3.166-.618 4.17-1.855 1.003-1.236 1.708-3.005 2.113-5.304.405-2.299.608-5.314.608-9.043zm31.502 17.74v-5.392h-14.535c-1.834 0-3.209-.415-4.126-1.246-.917-.831-1.375-1.961-1.375-3.391 0-.367.067-.739.202-1.116.135-.377.338-.773.609-1.189.27-.415.55-.816.839-1.202.29-.387.647-.86 1.072-1.421l15.345-20.55c1.003-1.352 1.828-2.333 2.475-2.942.647-.608 1.424-.913 2.331-.913 2.934 0 4.401 1.681 4.401 5.044v22.434h1.245c1.486 0 2.678.203 3.576.609.897.405 1.346 1.294 1.346 2.666 0 1.121-.367 1.938-1.1 2.45-.734.512-1.834.768-3.301.768h-1.766v5.391c0 1.488-.328 2.594-.984 3.319-.657.724-1.535 1.086-2.635 1.086-1.081 0-1.955-.372-2.621-1.115-.666-.744-.998-1.841-.998-3.29zm-12.45-11.884h12.449v-16.84l-12.449 16.84z" fill="#EB2B30"/><path d="M144.889 238.576v.001a4.846 4.846 0 01-6.857 0l-29.439-29.472-3.741-3.744a24.197 24.197 0 006.857-6.865l33.18 33.216a4.858 4.858 0 010 6.864z" fill="#9C9C9C"/><path d="M113.2 199.992l7.672 7.68a24.206 24.206 0 01-6.856 6.865h-.001l-3.93-3.936-3.741-3.744a24.193 24.193 0 006.856-6.865z" fill="#5E5E5E"/><path d="M120.844 183.998a29.236 29.236 0 00-10.032-20.833 29.107 29.107 0 00-19.184-7.181c-16.151 0-29.244 13.108-29.244 29.277 0 1.119.063 2.223.185 3.31a29.076 29.076 0 002.799 9.585v.001a29.37 29.37 0 0010.81 11.964 29.087 29.087 0 0015.45 4.415c6.325 0 12.181-2.01 16.965-5.427l.001-.001a29.425 29.425 0 006.856-6.863v-.001h.001a29.177 29.177 0 004.287-8.882 29.343 29.343 0 001.106-9.364zm-29.216 25.329a23.91 23.91 0 01-14.085-4.561 24.129 24.129 0 01-8.493-11.214 24.057 24.057 0 01-1.464-8.291c0-1.096.073-2.176.216-3.233 1.196-8.924 7.279-16.3 15.465-19.34a23.987 23.987 0 018.36-1.495c1.064 0 2.11.069 3.137.204a23.928 23.928 0 0112.794 5.838c4.975 4.409 8.111 10.85 8.111 18.026a24.02 24.02 0 01-.812 6.224 23.95 23.95 0 01-3.148 7.014 24.21 24.21 0 01-6.857 6.865 23.964 23.964 0 01-13.224 3.963z" fill="#B8B8B8"/><path d="M73.423 187.905a2.247 2.247 0 01-2.246-2.248 20.749 20.749 0 016.107-14.759 20.702 20.702 0 0114.742-6.113 2.247 2.247 0 010 4.495c-4.37 0-8.477 1.704-11.567 4.797a16.279 16.279 0 00-4.791 11.58 2.247 2.247 0 01-2.245 2.248z" fill="#fff"/></svg>