<svg width="129" height="240" fill="none" xmlns="http://www.w3.org/2000/svg"><path d="M67.617 153.202c9.611 0 18.703.057 27.794-.069 1.186-.016 2.339-1.038 3.546-1.483.918-.338 1.897-.7 2.852-.706 7.65-.057 15.299-.021 22.949-.045 1.162-.003 2.323-.172 3.485-.263l.08-.985c-.946-.171-1.892-.489-2.84-.492a29406.94 29406.94 0 00-65.747-.101c-39.284-.012-78.568 0-117.851.002-6.234 0-6.434.25-5.43 7.183 1.037.05 2.138.149 3.238.149 41.455.008 82.91-.009 124.364.049 2.239.004 3.91-.139 3.56-3.239zm58.444 16.785H-60.955c-.103.323-.167.426-.162.523.219 4.077 2.328 6.115 6.326 6.115 38.754 0 77.509-.002 116.262.013 1.707 0 3.271.18 3.721-2.229.098-.519 1.839-1.013 2.826-1.022 8.474-.074 16.948-.018 25.422-.045 1.326-.005 2.899.562 3.547-1.53.128-.413 1.634-.537 2.505-.538 7.337-.01 14.674.071 22.011.045 1.557-.006 3.115-.336 4.672-.516l-.113-.817-.001.001zm-189.057-24.326h4.123c40.429 0 80.857.013 121.286-.05 1.64-.002 3.953 1.209 4.762-1.743.079-.287 1.528-.251 2.34-.254 8.272-.017 16.543.006 24.815-.032 1.212-.005 2.737.567 3.112-1.6.077-.452 1.664-.892 2.56-.9 7.857-.07 15.716-.035 23.574-.048 1.061-.003 2.12-.105 3.18-.161l.114-.976c-.846-.221-1.689-.618-2.538-.633-3.825-.067-7.651-.024-11.477-.024l-170.603.001c-5.627 0-5.673.056-5.25 6.419l.002.001zm190.218 14.366H-62.456v5.722h4.4c40.622-.028 81.245-.042 121.868-.15 1.086-.003 2.143-1.076 3.263-1.518.911-.361 1.894-.729 2.85-.742 8.269-.109 16.54-.075 24.806-.258 1.36-.029 2.68-.985 4.056-1.38.97-.277 1.998-.442 3.006-.463 7.44-.159 14.881-.263 22.323-.401 1.051-.019 2.102-.123 3.153-.188l-.047-.622zm-64.608-25.301c1.08-.506 2.155-1.434 3.244-1.451 8.165-.126 16.332-.032 24.498-.112 1.282-.012 3.215.978 3.581-1.628.037-.26 1.652-.409 2.536-.413 8.77-.03 17.541-.018 26.311-.018l.188-.778c-.915-.229-1.827-.638-2.745-.656-3.824-.074-7.649-.03-11.475-.03l-164.677.002c-3.493 0-5.476 1.943-5.949 5.827H62.58l.035-.745v.002zm-115.865 55.026c1.815 5.829 2.183 6.116 7.625 6.113 33.181-.027 66.363-.053 99.544-.104.781-.001 2.029-.057 2.267-.514 1.587-3.034 4.303-2.375 6.816-2.385 6.925-.029 13.852.046 20.776-.071 2.21-.037 4.74.974 6.48-1.604.287-.425 1.566-.21 2.388-.209 7.959.005 15.919.047 23.878.022 1.104-.003 2.208-.311 3.311-.478a201.43 201.43 0 00-.098-.768h-172.99l.003-.002zm-4.604-63.931H58.629l-.196-.646c1.078-.5 2.151-1.416 3.235-1.432 8.37-.119 16.746-.011 25.116-.133 1.05-.015 2.06-1.035 3.139-1.448.817-.312 1.716-.558 2.58-.561 7.958-.033 15.918-.007 23.877.002h3.285l.206-1.2c-1.087-.201-2.172-.569-3.259-.576a4215.715 4215.715 0 00-30.385-.083c-45.891.033-91.783.079-137.675.119-4.916.005-5.525.546-6.407 5.957l.002.001zm-.007 54.191c1.101 5.411 1.63 5.871 6.651 5.871 36.487-.005 72.975-.019 109.462-.008 1.787 0 3.504.211 4.107-2.199.116-.462 1.284-.891 1.983-.919 2.062-.084 4.135.148 6.198.07 17.128-.647 34.254-1.332 51.38-2.021.438-.017.869-.204 1.236-.794H-57.862zm166.468-79.704c-.991-.122-1.981-.347-2.972-.352-26.563-.116-53.125-.19-79.689-.316-21.703-.103-43.407-.264-65.11-.393-5.265-.031-6.987 1.342-8.616 7.27h3.655c29.355-.001 58.71.009 88.065-.042 1.46-.002 3.613 1.074 4.02-1.832.037-.272 1.672-.43 2.57-.441 8.06-.095 16.123-.127 24.184-.236 1.164-.016 2.786.713 3.032-1.582.036-.342 1.75-.703 2.69-.709 8.58-.05 17.159-.017 25.738-.028.771 0 1.542-.147 2.313-.225l.119-1.114h.001zm-162.435 15.171H52.75c-.081-.326-.16-.652-.242-.979 1.149-.499 2.29-1.414 3.445-1.433 7.957-.125 15.918.004 23.875-.126 1.3-.022 2.563-.994 3.884-1.382.866-.254 1.807-.34 2.713-.342 8.475-.023 16.951 0 25.426-.024.91-.002 1.819-.218 2.729-.334.007-.363.013-.726.021-1.088-1.086-.134-2.171-.382-3.257-.385-39.589-.154-79.177-.276-118.766-.423-12.507-.047-25.012-.14-37.52-.233-5.463-.041-6.71.84-8.887 6.751l.001-.002zm166.936 84.21H-46.681c.72 4.484 2.871 6.399 7.263 6.396 28.322-.012 56.647-.033 84.97-.022 1.814 0 3.383.016 4.368-2.054.325-.684 1.822-1.089 2.797-1.113 8.368-.203 16.846.514 25.084-.608 11.291-1.538 22.549-.995 33.824-1.316.542-.016 1.075-.387 1.612-.592l-.13-.692v.001zM102.134 90.222c-1.223-.1-2.445-.284-3.668-.286-38.778-.068-77.555-.115-116.33-.173-4.55-.007-9.136.296-13.639-.181-5.02-.532-7.657 1.82-9.333 6.426h82.05l-1.578-1.85c.956-.077 1.733-.194 2.51-.195 7.445-.016 14.892.07 22.334-.07 2.102-.04 4.724 1.244 6.152-1.826.206-.443 1.742-.326 2.663-.337 8.478-.106 16.957-.185 25.435-.27 1.09-.01 2.179 0 3.268 0l.137-1.237-.001-.001zm-7.016-9.565c-1.121-.14-2.241-.398-3.363-.406-35.968-.24-71.934-.454-107.9-.673-3.308-.02-6.619-.146-9.921-.04-4.395.145-6.097 1.695-7.305 6.56.905.088 1.761.243 2.619.243 20.464.011 40.93.017 61.393-.022 1.133-.002 2.743.767 3.107-1.439.046-.28 1.656-.398 2.545-.415 8.06-.157 16.121-.24 24.18-.441 1.216-.031 3.04.796 3.331-1.64.03-.245 1.656-.407 2.54-.41 8.476-.032 16.952-.021 25.426-.022H95c.04-.433.077-.865.117-1.297v.002zm-134.24 129.405c2.533 4.142 5.55 6.228 10.317 6.176 21.396-.227 42.798-.115 64.195-.329 2.268-.023 4.513-1.425 6.79-2.109 1.157-.347 2.362-.729 3.548-.739 8.683-.073 17.368 0 26.05-.127 1.27-.018 2.51-.909 3.798-1.28.954-.273 1.96-.494 2.945-.504 7.752-.076 15.505-.09 23.258-.139.967-.006 1.935-.104 2.902-.159l-.027-.791H-39.12l-.002.001zm133.888 9.096H-28.655c4.713 2.563 7.438 6.655 13.036 6.502 13.11-.358 26.236-.072 39.353-.219 1.708-.02 3.4-1.074 5.108-1.62 1.33-.426 2.67-1.142 4.012-1.157 9.193-.101 18.387-.002 27.579-.109 1.303-.015 2.585-.853 3.9-1.226 1.052-.298 2.138-.652 3.213-.667 8.16-.106 16.32-.117 24.481-.21.962-.011 1.92-.341 2.88-.524-.048-.256-.094-.513-.14-.769v-.001zM-26.473 76.162c.921.066 1.809.186 2.695.186 15.705.013 31.411.017 47.116 0 1.34-.001 2.884.49 3.43-1.659.106-.42 1.817-.586 2.79-.593 7.232-.049 14.681 1.096 21.649-.283 11.672-2.31 23.299-.989 34.926-1.572.61-.03 1.197-.559 1.794-.857l-.189-.884c-.847-.089-1.693-.252-2.54-.258-34.198-.247-68.395-.49-102.592-.708-5.556-.036-7.86 1.66-9.08 6.625v.003zm8.985-9.807h7.676c7.753 0 15.508.074 23.26-.063 1.56-.027 3.863 1.365 4.648-1.607.065-.249 1.545-.15 2.367-.15 8.27-.008 16.541.034 24.812-.042 1.31-.011 3.223.937 3.655-1.631.05-.293 1.654-.431 2.54-.447 8.475-.15 16.952-.255 25.427-.387 1.076-.017 2.151-.117 3.227-.18l.144-.896c-.82-.25-1.64-.72-2.459-.722-29.98-.036-59.96-.025-89.94-.03-3.676 0-3.897 3.453-5.673 5.353l.316.802zm91.04-16.048c-.849-.107-1.697-.3-2.546-.31-24.37-.247-48.742-.487-73.112-.696-4.318-.036-6.74 2.113-7.595 6.67H9.65c.121-.612.27-1.364.43-2.184 3.037 0 6.024.013 9.01-.002 5.37-.028 10.741-.006 16.109-.147 1.663-.045 3.699.827 4.8-1.585.194-.423 1.73-.282 2.648-.284 9.295-.017 18.59 0 27.885-.023 1.027-.002 2.053-.186 3.08-.285l-.06-1.154zm6.107 178.415H-10.96l-.231.778c.592.403 1.151.875 1.784 1.197 2.95 1.5 5.968 2.869 8.87 4.458 2.811 1.54 5.333 1.24 8.235-.036 2.935-1.292 6.192-2.32 9.359-2.486 9.073-.478 18.171-.414 27.255-.692 1.219-.037 2.392-.909 3.627-1.225 1.654-.422 3.349-.951 5.028-.959 7.953-.033 15.907.109 23.86.149.992.005 1.984-.229 2.974-.352l-.143-.833v.001zM-2.825 46.277c2.672-.715 5.26 1.403 6.448-2.02.105-.306 1.547-.176 2.368-.177 7.639-.01 15.278.072 22.915-.07 1.406-.026 2.776-1.005 4.2-1.415.868-.25 1.806-.351 2.714-.352 8.774-.01 17.548.027 26.323.012 1.131-.002 2.262-.229 3.392-.351.016-.314.032-.627.046-.941-.681-.158-1.361-.447-2.044-.453-20.024-.175-40.05-.264-60.071-.52-4.012-.05-4.242 3.262-6.292 6.287zM57.98 30.514c-.9-.14-1.803-.397-2.704-.4-14.767-.025-29.535.031-44.302-.061-2.632-.016-3.497 1.125-3.441 4.04 5.484 0 11.612 1.629 16.111-.425 5.28-2.41 10.131-1.325 15.134-1.708 5.237-.4 10.527-.07 15.794-.107 1.135-.008 2.27-.223 3.404-.343l.006-.996h-.001zm-7.263-10.109c-.6-.18-1.199-.507-1.804-.52a7005.434 7005.434 0 00-30.58-.558c-2.817-.045-4.684 1.154-5.203 4.463 2.11-.357 4.573 1.497 5.699-1.907.12-.367 1.7-.324 2.602-.326 8.653-.022 17.306-.008 25.96-.02 1.069 0 2.14-.089 3.209-.137l.117-.994zm-1.029 217.48H17.513l-.354.711c.793.454 1.582 1.292 2.381 1.302 9.2.111 18.404.134 27.605.06.945-.008 1.883-.793 2.824-1.218l-.283-.854.002-.001zM21.28 11.248h21.923l-.002-.898H21.278l.002.898zM38.455.777c-.637-.244-1.269-.68-1.914-.7-2.86-.088-5.724-.107-8.583-.022-.52.016-1.022.639-1.533.982.408.34.808.967 1.223.976 3.523.079 7.048.044 10.571.044.08-.426.158-.853.236-1.28z" opacity=".4" fill="#fff"/></svg>