<svg width="348" height="200" fill="none" xmlns="http://www.w3.org/2000/svg"><path d="M97.457 198.169l80.782-37.297-89.119-41.145L.001 160.872l80.782 37.297a19.89 19.89 0 0016.674 0z" fill="#EB2B30"/><path d="M178.239 160.865v-7.959H.001v7.959" fill="#EB2B30"/><path d="M0 152.906l80.211 37.038.571.263a19.914 19.914 0 0016.675 0l80.782-37.301-23.15-10.686-57.632-26.609a19.907 19.907 0 00-16.675 0L0 152.906z" fill="#F27D82"/><path d="M43.217 153.109v.004c0 7.88 17.926 14.367 40.922 15.167 1.588.059 3.199.086 4.83.086 12.634 0 24.071-1.708 32.352-4.467 8.28-2.761 13.401-6.574 13.403-10.788l-.003-.006c0-.846-.212-1.677-.61-2.488l-3.063-12.451-4.535-18.432-5.329-21.675-4.393-17.863-5.567-22.632-4.279-17.396-5.89-23.95H77.181l-5.897 23.77-4.323 17.415-5.557 22.407-4.157 16.744-5.498 22.164-4.262 17.174-3.648 14.704c-.404.819-.619 1.657-.622 2.513z" fill="#EE5057"/><path d="M66.963 57.402c13.927 4.117 29.41 4.15 44.262.159l-4.279-17.396c-11.737 3.04-23.86 2.983-35.66-.18l-4.323 17.417zm-9.715 39.155c20.413 6.161 42.783 6.649 63.937 1.504l-4.393-17.864c-18.607 4.716-37.881 4.53-55.388-.385l-4.156 16.745zm-9.76 39.336c25.954 9.72 56.098 10.402 83.561 2.273l-4.535-18.432c-24.646 7.312-51.562 6.794-74.764-1.015l-4.262 17.174z" fill="#FBFBFA"/><path d="M47.488 135.894a121.09 121.09 0 0018.002 5.174c-1.282-4.991-1.945-10.171-2.076-15.3a85.759 85.759 0 01-.01-3.805 114.37 114.37 0 01-11.655-3.244l-4.26 17.175zm9.76-39.338c2.945.887 5.931 1.66 8.946 2.311.855-4.352 1.828-8.69 2.8-13.008l.91-4.058a100.098 100.098 0 01-8.498-1.989l-4.158 16.744zM66.963 57.4a73.934 73.934 0 007.996 1.886c1.322-5.898 2.65-11.795 3.97-17.694a71.356 71.356 0 01-7.643-1.608L66.963 57.4z" fill="#E6E6E6"/><path d="M71.286 39.987a71.106 71.106 0 007.642 1.608c1.902-8.459 3.801-16.918 5.7-25.376h-7.445l-5.897 23.768zm-9.88 39.827a99.629 99.629 0 008.498 1.989c1.687-7.503 3.371-15.008 5.055-22.511a73.658 73.658 0 01-7.996-1.886l-5.557 22.408zm-9.656 38.912a114.527 114.527 0 0011.655 3.244c.145-7.752 1.289-15.452 2.788-23.096-3.014-.651-6-1.424-8.945-2.311l-5.498 22.163zm-8.533 34.379v.004c0 7.88 17.926 14.367 40.922 15.167-2.611-1.404-5.009-3.337-7.053-5.468-5.773-6.019-9.507-13.626-11.597-21.744a121.166 121.166 0 01-18-5.173l-3.649 14.703c-.406.817-.62 1.655-.623 2.511z" fill="#EB2B30"/><path d="M77.185 16.222c0 2.197 5.344 3.979 11.935 3.979 6.592 0 11.936-1.782 11.936-3.98 0-2.197-5.344-3.979-11.936-3.979-6.591 0-11.935 1.782-11.935 3.98z" fill="#F27D82"/><path opacity=".3" d="M106.107 69.692c-.107 1.638-.321 3.27-.773 4.807-.535 1.815-1.519 3.636-3.267 4.207a3.998 3.998 0 01-1.096.19c-2.671.105-4.886-2.731-5.996-5.123-2.746-5.919-4.228-12.894-3.788-19.591.2-3.028.704-5.93 2.943-7.953 1.945-1.756 4.719-2.401 6.902-.858 2.418 1.708 3.322 4.915 3.871 7.871.791 4.267 1.379 8.613 1.318 12.99a68.89 68.89 0 01-.114 3.46z" fill="#FBFBFA"/><path d="M80.211 189.943l.571.263a19.914 19.914 0 0016.675 0l80.782-37.301-23.15-10.686c-.239 4.916-2.601 9.886-6.017 13.555-5.142 5.527-12.227 8.757-19.11 11.845-16.586 7.441-33.167 14.883-49.75 22.324z" fill="#EE5057"/><path d="M332.619 92.792l-72.156-52.065 7.935 97.854L348 196.02l-7.192-88.7a19.896 19.896 0 00-8.189-14.528z" fill="#EB2B30"/><path d="M260.463 40.727l-6.931 3.909 87.537 155.293L348 196.02" fill="#EB2B30"/><path d="M341.068 199.929l-7.138-88.075-.052-.628a19.918 19.918 0 00-8.188-14.528l-72.159-52.065 2.062 25.419 5.13 63.281a19.915 19.915 0 008.188 14.528l72.157 52.068z" fill="#F27D82"/><path d="M172.392 179.02l4.223 7.492 7.501 13.306 23.597-6.535 17.291-4.786 22.242-6.16 16.626-4.602 22.004-6.096 17.049-4.72 14.596-4.044c.911-.049 1.746-.275 2.494-.69l.004-.003c6.863-3.867 3.707-22.674-6.887-43.104a139.063 139.063 0 00-2.298-4.249c-2.882-5.108-5.951-9.811-9.07-13.972-3.593-4.802-7.241-8.88-10.71-12.02-6.471-5.86-12.306-8.45-15.978-6.383l-.004.006c-.737.416-1.357 1.009-1.867 1.753l-9.34 8.784L250.041 106l-16.262 15.289-13.398 12.599-16.976 15.968-13.051 12.27-17.962 16.895z" fill="#EE5057"/><path d="M225.005 188.487c-3.255-14.156-10.829-27.662-21.599-38.643l-13.049 12.271c8.411 8.735 14.317 19.323 17.357 31.159l17.291-4.787zm38.867-10.76c-4.66-20.812-15.22-40.542-30.091-56.446l-13.4 12.601c13.246 13.897 22.548 30.78 26.866 48.447l16.625-4.602zm39.053-10.814c-4.281-27.386-18.491-53.985-39.059-73.92l-13.825 13.002c18.472 17.884 31.242 41.588 35.835 65.639l17.049-4.721z" fill="#FBFBFA"/><path d="M333.93 111.854l-.052-.628a19.918 19.918 0 00-8.188-14.528l-72.159-52.065 2.062 25.419c4.399-2.207 9.887-2.59 14.762-1.415 7.338 1.765 13.63 6.352 19.701 10.833 14.624 10.797 29.25 21.588 43.874 32.384z" fill="#EE5057"/><path d="M250.042 105.994a123.914 123.914 0 019.67 10.517 124.204 124.204 0 017.254-4.47 98.907 98.907 0 019.635-4.83 135.83 135.83 0 00-12.737-14.219l-13.822 13.002z" fill="#E6E6E6"/><path d="M273.206 84.213l-9.34 8.784a135.81 135.81 0 0112.736 14.219c8.023-3.48 16.529-5.821 25.163-6.359-3.593-4.802-7.241-8.88-10.71-12.02-6.471-5.86-12.306-8.45-15.978-6.383l-.004.006c-.739.415-1.359 1.007-1.867 1.753z" fill="#EB2B30"/><path d="M220.382 133.881a110.844 110.844 0 017.234 8.386 3182.58 3182.58 0 013.589-3.115c3.403-2.952 6.815-5.908 10.273-8.802a124.092 124.092 0 00-7.698-9.069l-13.398 12.6z" fill="#E6E6E6"/><path d="M250.042 106l-16.262 15.289c2.713 2.9 5.284 5.928 7.698 9.068 5.868-4.906 11.879-9.634 18.234-13.84a123.775 123.775 0 00-9.67-10.517z" fill="#EB2B30"/><path d="M190.355 162.114a70.202 70.202 0 016.067 7.204c4.549-3.946 9.102-7.893 13.651-11.837a86.387 86.387 0 00-6.666-7.637l-13.052 12.27z" fill="#E6E6E6"/><path d="M220.382 133.891l-16.976 15.967a86.662 86.662 0 016.665 7.637 38817.72 38817.72 0 0117.544-15.22 110.998 110.998 0 00-7.233-8.384zm-47.99 45.12l4.223 7.491 19.806-17.18a70.086 70.086 0 00-6.067-7.205l-17.962 16.894z" fill="#EB2B30"/><path d="M184.117 199.81c1.914-1.08.842-6.611-2.397-12.353-3.237-5.744-7.413-9.524-9.327-8.445-1.914 1.079-.842 6.611 2.396 12.353 3.238 5.743 7.414 9.525 9.328 8.445z" fill="#F27D82"/><path opacity=".3" d="M284.856 150.713c1.4-.185 2.815-.27 4.193-.121 1.627.176 3.339.763 4.136 2.268.163.307.279.635.358.971.569 2.43-1.424 4.949-3.243 6.38-4.498 3.539-10.116 6.103-15.843 6.857-2.589.341-5.128.38-7.237-1.323-1.831-1.48-2.873-3.909-1.965-6.177 1.006-2.511 3.549-3.894 5.943-4.908 3.456-1.463 7.016-2.753 10.718-3.452.96-.183 1.946-.364 2.94-.495z" fill="#FBFBFA"/><path d="M213.562 78.393s-17.015 16.685-2.349 26.92c22.84 15.935 86.246-4.462 119.596-42.438" fill="#F4BD45"/><path d="M218.717 75.44s-15.904 15.595-2.196 25.16c21.346 14.894 80.607-4.17 111.779-39.662" fill="#FACF61"/><path d="M330.81 62.881s-42.368 27.595-77.175 32.052a74.032 74.032 0 01-6.033.534c-5.108.24-9.975-.12-14.429-1.254a32.78 32.78 0 01-6.266-2.263c-5.565-2.695-10.168-7.056-13.343-13.551 0 0 .161-2.174.684-5.78 2.322-16.004 11.806-60.233 46.259-68.22a47.316 47.316 0 014.386-.798c4.651-.622 9.035-.522 13.155.165 20.853 3.471 34.992 21.917 43.345 37.294 6.417 11.816 9.417 21.821 9.417 21.821z" fill="#FACF61"/><path d="M233.173 94.203a32.78 32.78 0 01-6.266-2.263c-5.565-2.695-10.168-7.055-13.343-13.55 0 0 .161-2.175.684-5.78 3.545 5.051 11.859 8.52 17.326 8.365l1.599 13.228zm97.637-31.319s-42.368 27.595-77.175 32.052a74.076 74.076 0 01-6.033.533c-.635-2.399-.638-4.925.184-7.28l1.777-5.581c11.139 5.905 36.132-2.51 52.38-9.976 3.716-1.708 7.367-3.681 10.364-6.465 6.266-5.828 8.96-12.86 9.142-21.416a50.95 50.95 0 00-.058-3.688c6.419 11.816 9.419 21.82 9.419 21.82z" fill="#F4BD45"/><path d="M278.047 3.76c-6.251 9.765-28.615 50.842-24.412 91.169-9.905 1.271-19.198.665-26.729-2.984-.034-.3-3.351-31.652 15.392-63.974 4.608-7.95 10.552-15.957 18.208-23.576a122.889 122.889 0 013.639-3.47s8.232-2.334 14.753.413c.193.08.385.165.576.257 0 0-.525.753-1.427 2.165z" fill="#F4BD45"/><path opacity=".3" d="M270.791 39.214c-.275 1.228-.512 2.506-.25 3.736.262 1.23 1.138 2.412 2.372 2.662 1.193.24 2.364-.41 3.406-1.036l4.202-2.52c3.305-1.982 6.643-3.99 9.396-6.686 2.754-2.696 4.91-6.186 5.267-10.023.357-3.838-1.381-7.99-4.778-9.809-4.967-2.658-9.353.73-11.755 4.78-3.53 5.95-6.338 12.113-7.86 18.896z" fill="#FBFBFA"/><path d="M278.898 1.338c-7.451.615-14.527 4.286-20.268 9.162-5.852 4.97-11.616 11.226-16.332 17.472 4.608-7.95 10.552-15.957 18.208-23.576a122.895 122.895 0 013.639-3.47s8.232-2.335 14.753.412z" fill="#EDAC2B"/></svg>